<svg width="26" height="22" viewBox="0 0 26 22" fill="none" xmlns="http://www.w3.org/2000/svg">
<g filter="url(#filter0_d_2305_845)">
<path fill-rule="evenodd" clip-rule="evenodd" d="M19.6677 1.1714C20.4021 1.3729 20.9804 1.96665 21.1767 2.72066C21.5333 4.0872 21.5333 6.93851 21.5333 6.93851C21.5333 6.93851 21.5333 9.78972 21.1767 11.1564C20.9804 11.9104 20.4021 12.5041 19.6677 12.7057C18.3369 13.0718 13 13.0718 13 13.0718C13 13.0718 7.66309 13.0718 6.33218 12.7057C5.59783 12.5041 5.0195 11.9104 4.82323 11.1564C4.46667 9.78972 4.46667 6.93851 4.46667 6.93851C4.46667 6.93851 4.46667 4.0872 4.82323 2.72066C5.0195 1.96665 5.59783 1.3729 6.33218 1.1714C7.66309 0.805176 13 0.805176 13 0.805176C13 0.805176 18.3369 0.805176 19.6677 1.1714ZM11.4 4.53845V9.87179L15.6667 7.20522L11.4 4.53845Z" fill="white"/>
</g>
<defs>
<filter id="filter0_d_2305_845" x="0.466675" y="0.805176" width="25.0667" height="20.2667" filterUnits="userSpaceOnUse" color-interpolation-filters="sRGB">
<feFlood flood-opacity="0" result="BackgroundImageFix"/>
<feColorMatrix in="SourceAlpha" type="matrix" values="0 0 0 0 0 0 0 0 0 0 0 0 0 0 0 0 0 0 127 0" result="hardAlpha"/>
<feOffset dy="4"/>
<feGaussianBlur stdDeviation="2"/>
<feComposite in2="hardAlpha" operator="out"/>
<feColorMatrix type="matrix" values="0 0 0 0 0 0 0 0 0 0 0 0 0 0 0 0 0 0 0.25 0"/>
<feBlend mode="normal" in2="BackgroundImageFix" result="effect1_dropShadow_2305_845"/>
<feBlend mode="normal" in="SourceGraphic" in2="effect1_dropShadow_2305_845" result="shape"/>
</filter>
</defs>
</svg>
